<?xml version="1.0" encoding="iso-8859-1"?>
<!-- Generator: Adobe Illustrator 19.0.0, SVG Export Plug-In . SVG Version: 6.00 Build 0)  -->
<svg version="1.1" id="Capa_1" xmlns="http://www.w3.org/2000/svg" xmlns:xlink="http://www.w3.org/1999/xlink" x="0px" y="0px"
	 viewBox="0 0 336 336" style="enable-background:new 0 0 336 336;" xml:space="preserve">
<g>
	<g>
		<path d="M216.8,171.2c-2.4-4-5.6-7.6-9.6-10.8c-4-2.8-9.2-5.6-15.2-7.6c-5.2-1.6-10.8-3.2-16.8-4.8v-33.2c3.2,0.8,5.6,1.6,7.6,3.2
			c3.2,2.8,6,6.4,8.4,11.6c2,3.6,3.6,6,5.2,7.2c1.6,1.6,4,2.4,6.8,2.4c3.2,0,6-1.2,8.4-3.6c2.4-2.4,3.2-5.2,3.2-8.4
			c0-3.6-0.8-6.8-2.8-10.4s-4.4-7.2-8.4-10.4c-4-3.2-8.8-6-14.4-8c-4-1.2-8.8-2-14-2.4V84c0-4-3.2-7.2-7.2-7.2s-7.2,3.2-7.2,7.2v12
			c-6.8,0.4-12.8,2-18.4,4c-7.2,2.8-13.2,7.2-16.8,12.8c-4,5.6-6,12-6,19.2c0,7.6,2,13.6,5.6,18.8c3.6,5.2,8.8,9.2,14.8,12
			c5.6,2.8,12.4,4.8,20.8,6.8V210c-2.4-0.4-4.8-1.2-6.4-2c-3.6-2-6-4-8-6.8s-3.6-6.4-5.2-10.4c-1.2-3.6-2.8-6-4.8-8
			c-2-1.6-4.4-2.8-7.2-2.8c-3.6,0-6.4,1.2-8.4,3.6c-2.4,2.4-3.2,4.8-3.2,8c0,5.6,2,11.2,5.6,16.8c3.6,6,8.4,10.4,14.4,14
			c6.4,3.6,14.4,6,23.6,6.8v23.2c0,4,3.2,7.2,7.2,7.2s7.2-3.2,7.2-7.2v-23.2c8-0.4,15.2-2.4,21.2-5.2c7.6-3.6,13.6-8.4,17.6-14.8
			c4-6.4,6-13.2,6-21.2C220.4,181.6,219.2,176,216.8,171.2z M160.8,144.4c-0.4-0.4-0.8-0.4-1.2-0.4c-2.4-0.8-5.2-2-7.6-3.2
			c-2.4-1.2-4.4-2.8-6-4.8c-1.6-2-2-4-2-6.8c0-4,2-7.6,6.4-10.8c2.8-2,6.4-3.2,10.4-4V144.4z M187.2,204.8c-3.2,2.4-7.2,4-12,4.8
			v-36.4c2,0.4,3.6,1.2,5.2,1.6c4,1.6,7.6,3.6,10,6c2.8,2.8,4,6,4,10.4C194.4,196.4,192,201.2,187.2,204.8z"/>
	</g>
</g>
<g>
	<g>
		<path d="M168,0C75.6,0,0,75.2,0,168s75.2,168,168,168s168-75.2,168-168S260.4,0,168,0z M168,321.6c-84.8,0-153.6-68.8-153.6-153.6
			S83.2,14.4,168,14.4S321.6,83.2,321.6,168S252.8,321.6,168,321.6z"/>
	</g>
</g>
<g>
	<g>
		<path d="M168,32C93.2,32,32,93.2,32,168s61.2,136,136,136s136-61.2,136-136S242.8,32,168,32z M168,289.6
			c-67.2,0-121.6-54.4-121.6-121.6S100.8,46.4,168,46.4S289.6,100.8,289.6,168S235.2,289.6,168,289.6z"/>
	</g>
</g>
<g>
</g>
<g>
</g>
<g>
</g>
<g>
</g>
<g>
</g>
<g>
</g>
<g>
</g>
<g>
</g>
<g>
</g>
<g>
</g>
<g>
</g>
<g>
</g>
<g>
</g>
<g>
</g>
<g>
</g>
</svg>
