<svg id="Capa_1" enable-background="new 0 0 512 512" height="512" viewBox="0 0 512 512" width="512" xmlns="http://www.w3.org/2000/svg"><g><g><path d="m510.135 314.983c-2.852-4.952-11.976-8.018-27.197-10.249 6.918-22.03-15.351-40.638-35.575-31.768-.766-4.022-2.856-7.42-5.573-10.019l3.067-82.34c.035-.934-.306-1.843-.945-2.524-.045-2.615-43.426-1.409-44.915-2.221v-14.455c0-1.902-1.52-3.455-3.421-3.497l-76.392-1.689c-1.945-.08-3.696 1.674-3.573 3.632l.732 19.011-14.885-.389-.463-38.592c-.023-1.915-1.583-3.456-3.498-3.456h-13.557l.212-15.15c.068-1.935-1.669-3.639-3.599-3.545 0 0-41.464 1.203-41.464 1.203-8.904.099-5.818 10.982-4.675 17.492-2.034.411-15.427-1.028-16.678 1.071-.915 1.534-.852 3.506-.893 5.357-.086 3.882.095 7.757.282 11.633l1.259 26.193c-8.281.633-4.492.344-12.773.977l-3.419-32.561c-.4-3.811-2.355-4.831-6.023-4.752-9.485.206-18.969.411-28.454.617-6.156.134-17.365-2.042-18.951 6.279-.705 3.699-.677 31.535-1.218 31.545-.004 0-9.171.181-9.171.181-.239-2.855 1.039-9.145-3.568-9.043h-51.893c-6.592-.617-2.495 22.235-3.656 26.366-6.642 1.934-23.327.602-31.427 4.231-2.451 1.098-4.095 3.49-4.247 6.171-1.273 22.511 3.831 45.699 4.566 68.179-6.457 5.779-10.786 14.136-11.045 22.666-11.688 1.73-27.57-1.643-35.443 9.352-2.207 3.492-2.218 7.58-.032 11.512 2.907 3.486 8.799 1.503 12.883 2.425 23.718 22.847 50.578 48.622 75.34 71.415 11.418 10.51 22.738 16.802 36.856 14.389-.774 5.818.404 12.1 6.325 14.409-11.149 18.037 10.69 26.126 8.682 41.06 3.351 17.827 28.306-22.229 13.638-42.424 9.731-7.14 3.538-21.897 4.613-31.713 10.082-8.949 18.021-14.175 24.875-16.866-.215 9.237-4.488 23.433 4.77 28.154-18.606 28.71 17.376 33.323 10.871 48.112-1.72 3.173 2.441 6.626 5.242 4.355 15.626-11.883 20.795-34.2 12.347-51.759 7.514-3.938 6.374-9.065 6.239-22.621 5.446 2.202 11.44 4.354 18.468 5.934-1.22 12.615-2.515 18.009 4.714 21.972-14.757 20.133 8.057 29.456 5.63 48.303-.475 2.686 2.604 4.915 5.006 3.635 17.762-8.178 24.076-34.616 15.814-51.631 9.926-4.599 4.586-18.991 4.5-27.762 11.402-6.122 23.421-8.026 35.472-2.919.924 10.019-5.579 24.07 3.463 31.912-17.6 21.495 9.454 31.624 3.606 49.033-1.634 3.263 2.731 6.579 5.439 4.133 14.472-12.066 23.544-33.514 16.313-51.072 5.776-4.305 2.408-12.767 3.317-19.266 51.506 17.011 94.138-19.458 129.59-62.329.293-.354.737-.534 1.193-.485 12.571 1.351 42.958.962 33.299-15.812zm-63.978-32.973c15.916-12.154 36.487 3.109 29.638 21.812-49.701-3.882-102.858-6.556-153.268-8.071-.644-4.363-2.584-8.269-5.477-11.376 1.761-11.748 20.704-15.533 27.449-6.257.935 1.154 2.501 1.592 3.898 1.091 5.303-3.556-.731-11.903 12.524-16.167 13.343-3.141 12.414 6.169 18.913 7.207 6.053-2.727 2.379-12.189 17.274-12.868 16.095-.36 12.559 18.478 20.534 11.569 8.235-10.324 24.589-3.327 22.823 9.749-.697 3.111 3.335 5.443 5.692 3.311zm-267.118-3.19c3.622-8.672 18.944-21.336 22.448-5.85.351 1.689 1.889 2.869 3.6 2.783 6.049-.645 1.313-15.181 18.413-15.518 11.609 1.275 4.253 11.386 10.49 13.798 6.309.389 4.264-11.211 16.148-7.812 4.361 1.426 8.05 5.619 6.457 11.772-1.099 3.808 4.523 6.112 6.413 2.629 5.76-9.811 21.774-4.327 17.656 7.308-1.58 3.837 4.211 6.656 6.263 3.052 7.767-11.528 24.749-8.351 28.462 4.578-43.183-1.109-86.433-1.269-129.638-.484.898-6.961-2.329-12.748-6.712-16.256zm6.504-89.789.169 11.099-20.55.788.005-11.484zm.275 18.096.289 19.011-20.956.311.008-18.53zm7.782 51.758-.048-3.128 19.605-.254c-3.418 1.698-6.481 4.289-8.635 7.617-4.106-4.307-7.313-4.407-10.922-4.235zm-54.585-25.052 19.136-.284-.007 15.669-18.933.245zm26.133-.388 21.065-.313.239 15.719-21.311.276zm28.06-.416 27.001-.4.588 15.779-27.351.354zm26.741-7.393-26.847.398-.291-19.175 26.401-1.012zm-61.794.917-19.227.285-.225-17.905 19.46-.746zm-18.701 42.089-.153-12.184 18.841-.244-.009 19.758c-1.233.568-2.424 1.279-3.538 2.164-3.206-5.867-9.335-8.995-15.141-9.494zm25.684-12.518 21.42-.277.079 5.208c-5.739 2.91-11.079 8.323-13.756 14.355-2.421-.874-5.052-1.236-7.751-1.118zm104.573-112.701c-.331 5.45-.632 10.911-.905 16.38l-18.34.291.264-16.671zm-20.007 64.853 17.451-.327c-.099 5.294-.172 10.587-.217 15.879l-17.478-.145zm17.61-7.328-17.5.328.222-14.039 17.647.122c-.145 4.528-.264 9.058-.369 13.589zm-17.964 29.73 17.562.145c-.016 4.153-.02 8.304-.003 12.452-.306-.087-17.438-.425-17.751-.46zm18.579-50.313-17.782-.122.208-13.15 18.131-.288c-.205 4.516-.392 9.035-.557 13.56zm-18.882 69.447c.511-.036 17.433.519 17.907.386.055 6.32.141 12.633.274 18.933-1.316.339-2.606.84-3.834 1.524-2.036-6.825-8.025-11.009-14.49-11.833zm109.961 6.5c-4.489 1.276-8.199 3.718-10.844 6.933l.176-14.447 18.075.202v6.458c-2.403-.129-4.897.139-7.407.854zm-32.287 10.274-.694-18.04 15.318.172-.227 18.645c-4.396-1.689-9.417-2.014-14.397-.777zm-1.492-38.772 16.376-.378-.174 14.286-15.673-.176zm23.374-.539 17.812-.411v15.139l-17.989-.202zm17.812-7.408-17.727.409.146-11.954 17.581-.737zm-24.725.57-16.73.386-.442-11.482 17.316-.726zm24.725-19.856-17.495.734.144-11.798 17.352-.296v11.36zm-24.495 1.028-17.671.741-.477-12.402 18.294-.312zm95.814-17.728-2.782 74.682c-5.774-2.281-13.159-2.208-18.957 2.154-3.453-5.899-9.62-9.68-16.998-10.25v-67.606zm-45.733-19.052v86.093c-5.784 1.229-10.622 4.535-13.6 9.34-1.502-1.316-3.184-2.372-4.991-3.163v-71.437c.039-1.892-1.662-3.588-3.557-3.498l-46.35.791-.757-19.658zm-75.388 21.041 3.216 83.576c-4.084 2.496-7.126 6.112-8.733 10.39-2.522-1.342-5.514-2.292-8.453-2.627l-1.101-91.732zm-20.963 91.507c-2.776.49-5.397 1.478-7.736 2.926-1.793-6.394-7.453-10.547-13.695-11.501-.875-41.648-.04-83.811 2.498-125.38h17.324zm-55.76-151.466 37.216-1.081-.162 11.596h-35.485zm3.842 17.512-1.833 115.955c-1.809.537-3.555 1.394-5.133 2.632-1.673-3.886-4.709-6.684-8.759-7.985l-4.122-110.602zm-24.781 55.433-26.246 1.006-.167-10.969 26.022-.514zm-63.279-45.93 39.751-1.364 3.16 30.214-44.032.87zm2.499 36.646-.005 11.614-19.552.749-.151-11.973zm-25.706 79.678c-2.988.798-5.859 2.307-8.192 4.633-.894-1.939-1.955-3.673-3.164-5.188.095-.156-.834-87.55-.802-87.777h11.046zm-27.666-7.716c-.837-26.77-.628-53.863.62-80.616h7.891l.782 82.213c-2.765-1.28-6.093-1.868-9.293-1.597zm-18.412-80.616h12.03c-1.265 27.297-1.462 54.945-.57 82.246-4.455 1.79-8.524 4.92-11.76 8.986-.108-20.931.082-60.982.3-91.232zm-15.171 90.858-.833-17.712c2.887-.387 5.779-.709 8.67-.972-.001 10.368.037 17.605.096 22.682-2.361-1.958-5.035-3.304-7.933-3.998zm-18.485-21.715c-.54-4.906-1.083-9.868-1.513-14.824l11.196-1.681.684 14.53c-3.477.573-6.936 1.232-10.367 1.975zm16.637-17.549 9.731-1.461c-.021 5.533-.034 10.517-.041 15.017-3.003.265-6.007.594-9.006.988zm9.761-8.541-10.091 1.515-.798-16.966c3.621-.293 7.331-.613 10.976-1.148-.036 5.963-.064 11.493-.087 16.599zm-28.557-12.984c3.4-.925 6.976-1.456 10.693-1.847l.818 17.391-11.371 1.707c-.348-5.836-.47-11.624-.14-17.251zm2.918 46.068c3.289-.724 6.605-1.372 9.938-1.935l.764 16.246c-3.221.332-6.366 1.363-9.262 2.837-.301-5.694-.839-11.452-1.44-17.148zm9.819 21.515c8.218-2.066 13.398 3.531 17.534 10.968 8.447 5.311 3.941-19.35 25.459-21.073 6.854.008 11.647 5.109 13.53 14.35.578 3.438 5.762 3.748 6.749.4 4.428-11.544 21.042-9.891 23.116 2.291.181 1.491 1.294 2.699 2.764 3.003 1.471.306 2.971-.364 3.728-1.66 7.435-11.161 23.88-4.727 22.771 8.352-45.044.922-90.032 2.877-134.837 5.857.69-11.246 10.259-20.621 19.186-22.488zm89.691 119.407c.263 4.875 1.403 10.917.576 15.626-.452 2.572-2.598 4.504-5.2 4.713-3.214.257-6.589.398-9.916.283-6.091-.21-5.483-4.513-4.169-9.968 6.221-2.191 12.505-5.761 18.709-10.654zm-4.802 27.378c6.484 9.726 6.177 22.974.052 32.694-3.735-11.857-18.161-19.483-7.017-32.656 2.265-.079 4.611.067 6.955-.056.004.006.006.013.01.018zm68.992-46.99c1.966 25.802-2.17 19.612-22.335 18.784-8.02-.329-2.315-17.122-2.958-23.405-.035-.346.218-.659.562-.708 8.609-1.225 15.902 1.61 24.731 5.329zm-9.297 65.278c-2.027-6.589-7.868-11.225-12.403-15.255-6.332-6.577-4.576-19.226 3.097-24.043 4.094.258 9.039.628 12.167.625 6.736 12.012 5.285 27.725-2.861 38.673zm47.919-54.337c5.59.115 10.824-2.252 15.783-4.368.092 6.296 5.446 18.61-4.337 18.541-15.92-.113-20.864 4.565-17.595-14.915 1.971.298 4.006.698 6.149.742zm13.146 48.127c-1.744 5.777-4.782 10.604-8.778 14.057-1.073-16.279-19.962-25.454-4.513-41.099 3.662.034 6.799-.051 10.908.068 4.197 7.64 5.122 17.897 2.383 26.974zm59.958 13.973c-2.64-14.289-18.677-22.31-4.801-37.82 3.861.448 8.066.162 11.696.868 4.2 9.606 3.334 24.129-6.895 36.952zm10.105-54.065c-.173 11.566 2.243 9.329-9.523 9.562-15.298.302-8.434-15.854-8.559-25.071 6.027 2.802 11.981 6.064 18.107 8.859.028 1.882.001 4.299-.025 6.65zm79.211-21.517c-65.795 39.022-76.852-10.057-124.483-6.644-11.593.831-21.511 9.015-32.349 12.057-3.009.845-6.178 1.023-9.269.561-42.053-6.288-53.448-36.37-99.663 7.511-11.609 10.332-23.954 15.602-34.732 14.84-8.598-.565-15.123-6.307-22.942-12.868-23.302-19.551-47.234-44.719-69.584-65.813 33.12 1.879 66.628 2.962 100.223 3.545-1.296 19.622 20.868 33.032 38.965 29.912 16.493-1.581 33.585-13.078 49.727-7.893 11.456 4.038 20.492 15.819 33.778 15.648 12.026.143 21.854-9.486 33.09-11.109 9.584-1.263 19.797 4.451 29.336 7.261 29.757 9.383 66.156-5.136 79.396-33.695 25.992.126 51.973.443 77.686 1.107-17.347 20.667-33.48 35.62-49.179 45.58zm-285.799-46.704c84.112 1.286 165.812-.312 249.69-.019-13.643 23.355-43.808 35.211-69.737 27.043-10.506-3.188-20.751-8.985-32.281-7.513-11.675 1.201-21.832 11.441-33.235 11.022-11.09-.921-19.693-11.934-30.56-15.266-18.372-6.033-35.449 5.629-52.922 7.615-14.239 1.649-31.179-5.823-30.955-22.882zm371.526-8.896c-.192 2.206-3.078 3.18-5.374 3.393-5.156.478-10.347.375-15.525.271-36.756 0-73.518-1.895-110.273-2.213-25.533-.221-51.068.4-76.602.543-30.339.171-60.678.389-91.018.408-30.304.019-60.609-.159-90.907-.783-30.218-.622-60.429-1.688-90.603-3.448-5.121-.299-10.24-.617-15.358-.957-.754-.05-1.304-.751-1.167-1.494.837-4.529 8.324-6.219 12.615-6.183 36.45-2.713 72.949-4.749 109.474-6.112 36.609-1.366 73.244-2.055 109.879-2.064 36.633-.009 73.266.661 109.874 2.019 36.093 1.34 72.2 3.283 108.232 5.672 10.467.694 20.925 1.708 31.271 3.474 4.316.737 8.681 1.627 12.551 3.676 1.423.753 2.918 1.919 2.939 3.528.003.091 0 .182-.008.27z"/><path d="m325.408 137.142c31.463 4.818 64.575.856 96.38 1.005 1.669.006 3.111-1.17 3.441-2.806 3.786-15.152-3.732-36.76-29.347-23.518-1.354-9.982-9.051-27.815-23.364-25.305-16.187 2.838-27.836 6.81-26.284 22.587-26.446-12.903-46.076 24.17-20.826 28.037zm.058-21.254c11.391-9.53 31.523 11.034 29.118-1.486-1.206-6.279-2.042-10.457-.237-13.367 2.847-4.589 10.924-6.276 19.201-7.599 11.776-1.882 15.54 18.1 16.103 24.02 2.066 12.124 31.208-21.228 29.122 13.683-30.568-.13-62.257 3.332-92.507-.947-7.47-1.056-6.095-9.804-.8-14.304z"/><path d="m202.402 92.308c31.464 4.819 64.573.856 96.38 1.005 1.668.006 3.11-1.169 3.441-2.804 3.787-15.216-3.692-36.643-29.346-23.513-1.353-9.981-9.049-27.822-23.365-25.312-16.188 2.838-27.836 6.81-26.284 22.586-26.445-12.903-46.075 24.171-20.826 28.038zm.059-21.254c11.392-9.531 31.523 11.034 29.119-1.486-1.206-6.279-2.042-10.456-.237-13.367 2.846-4.589 10.924-6.276 19.201-7.599 11.776-1.882 15.539 18.099 16.102 24.02 2.066 12.125 31.205-21.229 29.122 13.683-30.571-.13-62.254 3.333-92.507-.947-7.47-1.056-6.095-9.804-.8-14.304z"/><path d="m72.066 129.884c31.464 4.819 64.573.856 96.38 1.005 1.668.006 3.11-1.169 3.441-2.804 3.787-15.215-3.691-36.642-29.345-23.513-1.353-9.982-9.126-28.226-23.366-25.313-16.261 2.379-27.836 6.811-26.284 22.587-26.444-12.903-46.076 24.172-20.826 28.038zm.058-21.253c11.391-9.529 31.523 11.033 29.119-1.486-1.206-6.279-2.042-10.456-.237-13.367 2.847-4.589 10.911-6.365 19.201-7.599 11.755-2.008 15.539 18.1 16.103 24.021 2.067 12.125 31.205-21.23 29.122 13.682-30.57-.13-62.254 3.332-92.507-.947-7.47-1.057-6.095-9.804-.801-14.304z"/></g></g></svg>