<svg id="Layer_1" enable-background="new 0 0 512 512" height="512" viewBox="0 0 512 512" width="512" xmlns="http://www.w3.org/2000/svg"><g><g><path d="m452.112 474.455c20.491 0 34.592-20.803 26.757-39.737-7.09-17.133-17.734-29.622-4.74-58.744 22.961-51.459 10.602-78.75-9.714-111.79-34.441-56.012-9.261-84.62-22.653-133.142-48.223-174.717-323.296-174.728-371.523 0-13.393 48.522 11.788 77.129-22.653 133.142-20.316 33.04-32.675 60.331-9.714 111.79 12.994 29.122 2.35 41.612-4.74 58.744-7.835 18.934 6.266 39.737 26.757 39.737z" fill="#735351"/><path d="m474.129 375.974c22.961-51.459 10.602-78.75-9.714-111.79-34.441-56.013-9.261-84.62-22.653-133.142-25.651-92.932-115.481-136.437-201.218-130.508 75.454 5.217 147.738 48.721 170.312 130.508 13.393 48.522-11.788 77.13 22.653 133.142 20.316 33.04 32.675 60.331 9.714 111.79-12.994 29.122-2.35 41.612 4.74 58.744 7.835 18.934-6.266 39.737-26.757 39.737h30.905c20.491 0 34.592-20.804 26.757-39.737-7.089-17.133-17.733-29.623-4.739-58.744z" fill="#664442"/><g><g><ellipse cx="396.338" cy="271.048" fill="#fac8a2" rx="31.298" ry="31.444"/></g><g><ellipse cx="115.662" cy="271.048" fill="#fac8a2" rx="31.298" ry="31.444"/></g></g><g><path d="m111.533 512v-23.24c0-79.666 64.582-144.248 144.248-144.248h.439c79.666 0 144.248 64.582 144.248 144.248v23.24z" fill="#ff80b3"/><path d="m256.219 344.512h-.439c-5.145 0-10.227.27-15.233.796 72.505 7.61 129.015 68.932 129.015 143.452v23.24h30.905v-23.24c0-79.666-64.582-144.248-144.248-144.248z" fill="#ff6ba7"/><path d="m256.056 454.528h-.111c-20.21 0-36.594-16.384-36.594-36.594v-59.226h73.298v59.226c0 20.21-16.383 36.594-36.593 36.594z" fill="#ffd8ba"/></g><g><path d="m181.344 100.439c-4.633 47.132-28.565 52.383-43.343 57.509-7.086 2.458-11.818 9.18-11.818 16.711v89.116c0 72.03 58.121 130.421 129.818 130.421 71.696 0 129.818-58.392 129.818-130.421v-82.906c0-10.037-8.296-17.981-18.283-17.687-15.63.459-41.584.577-61.692-19.332-25.633-25.379-40.459-16.343-67.21-16.954-33.445-.764-47.285-16.346-52.895-27.297-1.071-2.087-4.165-1.496-4.395.84z" fill="#ffd8ba"/></g></g><path d="m284.704 332.236c-1.983 0-3.966-.759-5.476-2.276-6.213-6.242-14.463-9.68-23.23-9.68s-17.017 3.438-23.23 9.68c-3.011 3.024-7.902 3.036-10.927.026-3.024-3.011-3.036-7.902-.026-10.927 9.135-9.177 21.274-14.231 34.183-14.231 12.908 0 25.048 5.054 34.183 14.231 3.01 3.025 2.998 7.917-.026 10.927-1.508 1.5-3.48 2.25-5.451 2.25z" fill="#f0b07f"/><g fill="#735351"><path d="m207.356 204.043c-4.182 0-7.621-3.339-7.721-7.542-.102-4.266 3.274-7.807 7.54-7.908 14.047-.335 25.526-9.171 25.641-9.261 3.355-2.619 8.207-2.04 10.839 1.305 2.631 3.346 2.072 8.18-1.263 10.823-.624.495-15.51 12.12-34.848 12.581-.063.002-.125.002-.188.002z"/><path d="m308.566 204.043c-.062 0-.125-.001-.188-.002-19.338-.461-34.223-12.086-34.848-12.581-3.344-2.65-3.907-7.51-1.257-10.854 2.644-3.337 7.489-3.904 10.832-1.274.135.105 11.606 8.926 25.64 9.26 4.266.102 7.642 3.642 7.54 7.908-.098 4.204-3.538 7.543-7.719 7.543z"/></g><g fill="#f0b07f"><path d="m308.402 282.033c-20.32 0-36.852-16.531-36.852-36.851v-14.462c0-4.267 3.459-7.726 7.726-7.726s7.726 3.459 7.726 7.726v14.461c0 11.799 9.6 21.398 21.399 21.398s21.398-9.599 21.398-21.398v-14.461c0-4.267 3.459-7.726 7.726-7.726s7.726 3.459 7.726 7.726v14.461c.002 20.32-16.529 36.852-36.849 36.852z"/><path d="m203.598 282.033c-20.32 0-36.851-16.531-36.851-36.851v-14.462c0-4.267 3.459-7.726 7.726-7.726s7.726 3.459 7.726 7.726v14.461c0 11.799 9.599 21.398 21.398 21.398s21.399-9.599 21.399-21.398v-14.461c0-4.267 3.459-7.726 7.726-7.726s7.726 3.459 7.726 7.726v14.461c.002 20.32-16.53 36.852-36.85 36.852z"/></g></g></svg>